<svg width="343" height="20" viewBox="0 0 343 20" fill="none" xmlns="http://www.w3.org/2000/svg">
<g clip-path="url(#clip0_6608_43)">
<path d="M4.92308 13.3187H15.033V17.7143H4.92308V13.3187Z" fill="#4318FF"/>
<path d="M15.3846 14.2418C15.3846 12.7962 14.815 11.4098 13.8011 10.3876C12.7871 9.36545 11.412 8.79121 9.97802 8.79121C8.54409 8.79121 7.16892 9.36545 6.15499 10.3876C5.14105 11.4098 4.57143 12.7962 4.57143 14.2418H15.3846Z" fill="#4318FF"/>
<path fill-rule="evenodd" clip-rule="evenodd" d="M10 15.6044C13.0952 15.6044 15.6044 13.0952 15.6044 10C15.6044 6.90479 13.0952 4.3956 10 4.3956C6.90479 4.3956 4.3956 6.90479 4.3956 10C4.3956 13.0952 6.90479 15.6044 10 15.6044ZM10 20C15.5229 20 20 15.5229 20 10C20 4.47714 15.5229 0 10 0C4.47714 0 0 4.47714 0 10C0 15.5229 4.47714 20 10 20Z" fill="#4318FF"/>
</g>
<path d="M33.856 16V7.46H31.21V5.57H38.644V7.46H36.026V16H33.856ZM42.7677 16V5.57H47.0517C49.2077 5.57 50.7477 6.718 50.7477 8.902C50.7477 10.33 50.0477 11.338 48.9417 11.842L51.3217 16H48.8857L46.7717 12.22H44.9377V16H42.7677ZM44.9377 10.33H47.0657C47.9757 10.33 48.5777 9.756 48.5777 8.902C48.5777 8.034 47.9757 7.46 47.0657 7.46H44.9377V10.33ZM55.5957 16V5.57H62.6097V7.46H57.7657V9.826H62.3297V11.716H57.7657V14.11H62.6097L62.5957 16H55.5957ZM73.4539 5.57H75.6239V16H73.9439L69.2539 9.686V16H67.0839V5.57H68.7499L73.4539 11.842V5.57ZM80.3905 16V5.57H83.7925C87.1805 5.57 89.3505 7.754 89.3505 10.778C89.3505 13.802 87.1665 16 83.7925 16H80.3905ZM82.5605 14.11H83.8485C85.8785 14.11 87.1805 12.808 87.1805 10.778C87.1805 8.748 85.8785 7.46 83.8485 7.46H82.5605V14.11ZM93.7654 16V5.57H95.9354V16H93.7654ZM100.701 16V5.57H107.715V7.46H102.871V9.826H107.435V11.716H102.871V14.11H107.715L107.701 16H100.701ZM116.109 16.168C114.037 16.168 112.273 15.006 111.699 13.242L113.519 12.388C114.023 13.606 115.073 14.278 116.109 14.278C117.173 14.278 117.803 13.788 117.803 13.172C117.803 12.626 117.425 12.332 116.809 12.136L114.681 11.464C112.903 10.904 112.063 9.896 112.063 8.51C112.063 6.648 113.561 5.402 115.815 5.402C117.817 5.402 119.385 6.508 119.945 8.048L118.125 8.902C117.775 7.908 116.935 7.292 115.815 7.292C114.863 7.292 114.233 7.782 114.233 8.426C114.233 8.916 114.597 9.28 115.269 9.49L117.341 10.134C119.091 10.68 119.973 11.618 119.973 13.046C119.973 14.922 118.433 16.168 116.109 16.168ZM126.336 16V7.46H123.69V5.57H131.124V7.46H128.506V16H126.336ZM142.859 16V7.46H140.213V5.57H147.647V7.46H145.029V16H142.859ZM156.73 5.57L160.286 16H157.99L157.29 13.872H153.3L152.6 16H150.304L153.86 5.57H156.73ZM153.916 11.982H156.674L155.302 7.754L153.916 11.982ZM164.271 16V5.57H166.441V16H164.271ZM171.206 16V5.57H173.376V14.11H178.066V16H171.206ZM192.57 5.57H194.796L192.22 16H189.392L187.726 8.594L186.06 16H183.232L180.656 5.57H183.022L184.8 13.144L186.48 5.57H189.112L190.792 13.144L192.57 5.57ZM198.927 16V5.57H201.097V16H198.927ZM212.232 5.57H214.402V16H212.722L208.032 9.686V16H205.862V5.57H207.528L212.232 11.842V5.57ZM219.169 16V5.57H222.571C225.959 5.57 228.129 7.754 228.129 10.778C228.129 13.802 225.945 16 222.571 16H219.169ZM221.339 14.11H222.627C224.657 14.11 225.959 12.808 225.959 10.778C225.959 8.748 224.657 7.46 222.627 7.46H221.339V14.11ZM240.155 16V7.46H237.509V5.57H244.943V7.46H242.325V16H240.155ZM249.067 16V5.57H256.081V7.46H251.237V9.826H255.801V11.716H251.237V14.11H256.081L256.067 16H249.067ZM269.375 5.57H271.475V16H269.305V9.28L266.155 13.34H265.875L262.725 9.126V16H260.555V5.57H262.655L266.001 9.98L269.375 5.57ZM276.241 16V5.57H280.525C282.681 5.57 284.221 6.718 284.221 8.902C284.221 11.044 282.653 12.22 280.525 12.22H278.411V16H276.241ZM278.411 10.33H280.539C281.449 10.33 282.051 9.756 282.051 8.902C282.051 8.034 281.449 7.46 280.539 7.46H278.411V10.33ZM288.494 16V5.57H290.664V14.11H295.354V16H288.494ZM305.215 5.57L308.771 16H306.475L305.775 13.872H301.785L301.085 16H298.789L302.345 5.57H305.215ZM302.401 11.982H305.159L303.787 7.754L302.401 11.982ZM314.075 16V7.46H311.429V5.57H318.863V7.46H316.245V16H314.075ZM322.986 16V5.57H330V7.46H325.156V9.826H329.72V11.716H325.156V14.11H330L329.986 16H322.986ZM338.395 16.168C336.323 16.168 334.559 15.006 333.985 13.242L335.805 12.388C336.309 13.606 337.359 14.278 338.395 14.278C339.459 14.278 340.089 13.788 340.089 13.172C340.089 12.626 339.711 12.332 339.095 12.136L336.967 11.464C335.189 10.904 334.349 9.896 334.349 8.51C334.349 6.648 335.847 5.402 338.101 5.402C340.103 5.402 341.671 6.508 342.231 8.048L340.411 8.902C340.061 7.908 339.221 7.292 338.101 7.292C337.149 7.292 336.519 7.782 336.519 8.426C336.519 8.916 336.883 9.28 337.555 9.49L339.627 10.134C341.377 10.68 342.259 11.618 342.259 13.046C342.259 14.922 340.719 16.168 338.395 16.168Z" fill="#4318FF"/>
<defs>
<clipPath id="clip0_6608_43">
<rect width="20" height="20" fill="white"/>
</clipPath>
</defs>
</svg>
