<svg width="24" height="24" viewBox="0 0 24 24" fill="none" xmlns="http://www.w3.org/2000/svg">
<path fill-rule="evenodd" clip-rule="evenodd" d="M7.60057 2.18188H16.3991C19.3872 2.18188 21.8182 4.61288 21.8181 7.60081V16.3993C21.8181 19.3873 19.3872 21.8182 16.3991 21.8182H7.60057C4.61264 21.8182 2.18176 19.3874 2.18176 16.3993V7.60081C2.18176 4.61288 4.61264 2.18188 7.60057 2.18188ZM16.3992 20.076C18.4266 20.076 20.076 18.4267 20.076 16.3993H20.0759V7.60081C20.0759 5.57355 18.4265 3.92412 16.3991 3.92412H7.60057C5.57331 3.92412 3.924 5.57355 3.924 7.60081V16.3993C3.924 18.4267 5.57331 20.0761 7.60057 20.076H16.3992ZM6.85709 12.0002C6.85709 9.16431 9.16413 6.85721 11.9999 6.85721C14.8358 6.85721 17.1428 9.16431 17.1428 12.0002C17.1428 14.8359 14.8358 17.1429 11.9999 17.1429C9.16413 17.1429 6.85709 14.8359 6.85709 12.0002ZM8.62792 12.0001C8.62792 13.8594 10.1407 15.3719 11.9999 15.3719C13.8592 15.3719 15.372 13.8594 15.372 12.0001C15.372 10.1406 13.8593 8.62797 11.9999 8.62797C10.1406 8.62797 8.62792 10.1406 8.62792 12.0001Z" fill="#68769F"/>
<mask id="mask0_6624_28" style="mask-type:luminance" maskUnits="userSpaceOnUse" x="2" y="2" width="20" height="20">
<path fill-rule="evenodd" clip-rule="evenodd" d="M7.60057 2.18188H16.3991C19.3872 2.18188 21.8182 4.61288 21.8181 7.60081V16.3993C21.8181 19.3873 19.3872 21.8182 16.3991 21.8182H7.60057C4.61264 21.8182 2.18176 19.3874 2.18176 16.3993V7.60081C2.18176 4.61288 4.61264 2.18188 7.60057 2.18188ZM16.3992 20.076C18.4266 20.076 20.076 18.4267 20.076 16.3993H20.0759V7.60081C20.0759 5.57355 18.4265 3.92412 16.3991 3.92412H7.60057C5.57331 3.92412 3.924 5.57355 3.924 7.60081V16.3993C3.924 18.4267 5.57331 20.0761 7.60057 20.076H16.3992ZM6.85709 12.0002C6.85709 9.16431 9.16413 6.85721 11.9999 6.85721C14.8358 6.85721 17.1428 9.16431 17.1428 12.0002C17.1428 14.8359 14.8358 17.1429 11.9999 17.1429C9.16413 17.1429 6.85709 14.8359 6.85709 12.0002ZM8.62792 12.0001C8.62792 13.8594 10.1407 15.3719 11.9999 15.3719C13.8592 15.3719 15.372 13.8594 15.372 12.0001C15.372 10.1406 13.8593 8.62797 11.9999 8.62797C10.1406 8.62797 8.62792 10.1406 8.62792 12.0001Z" fill="white"/>
</mask>
<g mask="url(#mask0_6624_28)">
</g>
</svg>
